# xmcd
#
# Track frame offsets:
#	150
#	10741
#	21284
#	32720
#	44857
#	56677
#	67209
#	78601
#	92100
#	103311
#	117316
#
# Disc length: 1780 seconds
#
# Revision: 1
# Processed by: cddbd v1.5.1PL0 Copyright (c) Steve Scherf et al.
# Submitted via: audiograbber 1.82.02
#
DISCID=9e06f20b
DTITLE=Roy Acuff - Back In the Country LP
DYEAR=1900
DGENRE=Country
TTITLE0=Back In the Country
TTITLE1=This Worald Can't Stand For Long
TTITLE2=Sing A Country Song
TTITLE3=Joel Blon (Our Own)
TTITLE4=A Plastic Heart
TTITLE5=Don't Worry
TTITLE6=Old Time Sunshine Song
TTITLE7=The Family Who Prays
TTITLE8=Radio Station S.A.N.E.D
TTITLE9=Precious Memories
TTITLE10=Memories Are Prescious
EXTD=
EXTT0=
EXTT1=
EXTT2=
EXTT3=
EXTT4=
EXTT5=
EXTT6=
EXTT7=
EXTT8=
EXTT9=
EXTT10=
PLAYORDER=
